<svg width="1121" height="269" viewBox="0 0 1121 269" fill="none" xmlns="http://www.w3.org/2000/svg">
<path d="M497.324 267.4H468.547V0H502.036L518.08 173.301H522.282C520.117 146.561 516.297 93.59 515.788 58.9554L515.024 0H543.801V267.4H510.312L494.268 94.0993H490.066C492.231 120.839 495.669 164.769 496.306 206.535L497.324 267.4Z" fill="#EEEEEE"/>
<path d="M421.059 267.4H388.971L403.105 0H451.619L465.753 267.4H433.665L432.137 194.82H422.587L421.059 267.4ZM423.351 154.583L423.097 165.788H431.628L431.373 154.583C430.609 122.877 429.973 94.736 429.336 63.03H425.261C424.752 94.6087 424.115 122.877 423.351 154.583Z" fill="#EEEEEE"/>
<path d="M359.623 267.4H327.535V0H359.623V267.4Z" fill="#EEEEEE"/>
<path d="M288.15 0H320.238V230.728C320.238 257.468 308.778 268.928 284.33 268.928C259.882 268.928 248.422 257.468 248.422 230.728V150.508L280.51 146.688V234.93C280.51 237.986 282.038 239.514 284.33 239.514C286.622 239.514 288.15 237.986 288.15 234.93V0Z" fill="#EEEEEE"/>
<path d="M145.677 267.4H116.773L116.391 0H157.647L159.939 44.0573C161.467 73.8533 163.249 113.199 164.013 141.34H167.833C168.597 113.199 170.253 73.5986 171.781 43.8026L174.073 0H215.074V267.4H186.424L186.806 200.677C187.061 160.695 190.117 94.9907 191.008 76.6547H186.933L174.455 267.4H157.647L144.786 76.6547H140.711C141.603 95.7547 144.404 160.695 144.913 200.677L145.677 267.4Z" fill="#EEEEEE"/>
<path d="M108.936 267.4H76.8477V0H108.936V267.4Z" fill="#EEEEEE"/>
<path d="M31.0693 267.4H0V0H31.0693V42.402C31.0693 62.9027 28.65 84.5493 26.358 104.668H30.4327L43.93 0H75.254L57.682 98.938L76.5273 267.4H44.694L40.492 220.414C37.6907 188.453 36.672 165.024 36.672 144.778H32.852L31.0693 154.71V267.4Z" fill="#EEEEEE"/>
<path d="M1074.32 267.4H1045.55V0H1079.04L1095.08 173.301H1099.28C1097.12 146.561 1093.3 93.59 1092.79 58.9554L1092.02 0H1120.8V267.4H1087.31L1071.27 94.0993H1067.07C1069.23 120.839 1072.67 164.769 1073.31 206.535L1074.32 267.4Z" fill="#EEEEEE"/>
<path d="M998.059 267.4H965.971L980.105 0H1028.62L1042.75 267.4H1010.67L1009.14 194.82H999.587L998.059 267.4ZM1000.35 154.583L1000.1 165.788H1008.63L1008.37 154.583C1007.61 122.877 1006.97 94.736 1006.34 63.03H1002.26C1001.75 94.6087 1001.12 122.877 1000.35 154.583Z" fill="#EEEEEE"/>
<path d="M936.623 267.4H904.535V0H936.623V267.4Z" fill="#EEEEEE"/>
<path d="M865.15 0H897.238V230.728C897.238 257.468 885.778 268.928 861.33 268.928C836.882 268.928 825.422 257.468 825.422 230.728V150.508L857.51 146.688V234.93C857.51 237.986 859.038 239.514 861.33 239.514C863.622 239.514 865.15 237.986 865.15 234.93V0Z" fill="#EEEEEE"/>
<path d="M722.677 267.4H693.773L693.391 0H734.647L736.939 44.0573C738.467 73.8533 740.249 113.199 741.013 141.34H744.833C745.597 113.199 747.253 73.5986 748.781 43.8026L751.073 0H792.074V267.4H763.424L763.806 200.677C764.061 160.695 767.117 94.9907 768.008 76.6547H763.933L751.455 267.4H734.647L721.786 76.6547H717.711C718.603 95.7547 721.404 160.695 721.913 200.677L722.677 267.4Z" fill="#EEEEEE"/>
<path d="M685.936 267.4H653.848V0H685.936V267.4Z" fill="#EEEEEE"/>
<path d="M608.069 267.4H577V0H608.069V42.402C608.069 62.9027 605.65 84.5493 603.358 104.668H607.433L620.93 0H652.254L634.682 98.938L653.527 267.4H621.694L617.492 220.414C614.691 188.453 613.672 165.024 613.672 144.778H609.852L608.069 154.71V267.4Z" fill="#EEEEEE"/>
</svg>
