<svg width="544" height="269" viewBox="0 0 544 269" fill="none" xmlns="http://www.w3.org/2000/svg">
<path d="M497.324 267.4H468.547V0H502.036L518.08 173.301H522.282C520.117 146.561 516.297 93.59 515.788 58.9554L515.024 0H543.801V267.4H510.312L494.268 94.0993H490.066C492.231 120.839 495.669 164.769 496.306 206.535L497.324 267.4Z" fill="#EEEEEE"/>
<path d="M421.059 267.4H388.971L403.105 0H451.62L465.753 267.4H433.665L432.137 194.82H422.587L421.059 267.4ZM423.352 154.583L423.097 165.788H431.628L431.374 154.583C430.61 122.877 429.973 94.736 429.336 63.03H425.262C424.752 94.6087 424.116 122.877 423.352 154.583Z" fill="#EEEEEE"/>
<path d="M359.623 267.4H327.535V0H359.623V267.4Z" fill="#EEEEEE"/>
<path d="M288.15 0H320.238V230.728C320.238 257.468 308.778 268.928 284.33 268.928C259.882 268.928 248.422 257.468 248.422 230.728V150.508L280.51 146.688V234.93C280.51 237.986 282.038 239.514 284.33 239.514C286.622 239.514 288.15 237.986 288.15 234.93V0Z" fill="#EEEEEE"/>
<path d="M145.677 267.4H116.773L116.391 0H157.647L159.939 44.0573C161.467 73.8533 163.249 113.199 164.013 141.34H167.833C168.597 113.199 170.253 73.5986 171.781 43.8026L174.073 0H215.074V267.4H186.424L186.806 200.677C187.061 160.695 190.117 94.9907 191.008 76.6547H186.933L174.455 267.4H157.647L144.786 76.6547H140.711C141.603 95.7547 144.404 160.695 144.913 200.677L145.677 267.4Z" fill="#EEEEEE"/>
<path d="M108.936 267.4H76.8477V0H108.936V267.4Z" fill="#EEEEEE"/>
<path d="M31.0693 267.4H0V0H31.0693V42.402C31.0693 62.9027 28.65 84.5493 26.358 104.668H30.4327L43.93 0H75.254L57.682 98.938L76.5273 267.4H44.694L40.492 220.414C37.6907 188.453 36.672 165.024 36.672 144.778H32.852L31.0693 154.71V267.4Z" fill="#EEEEEE"/>
</svg>
