<svg width="512" height="512" viewBox="0 0 512 512" fill="none" xmlns="http://www.w3.org/2000/svg">
<rect width="512" height="512" fill="white"/>
<path d="M277.296 151.069H308.461L311.84 182.609C324.481 158.203 345.07 146 373.606 146C416.535 146 438 174.348 438 231.045V361.335H403.268V231.045C403.268 212.146 399.952 198.254 393.318 189.367C386.81 180.481 376.672 176.038 362.905 176.038C346.509 176.038 333.868 181.858 324.982 193.498C316.221 205.012 311.84 221.345 311.84 242.497V361.335H277.296V151.069Z" fill="black"/>
<path d="M143.026 366.78C122.751 366.78 105.979 360.96 92.7125 349.32C79.5708 337.555 73 320.721 73 298.819C73 280.671 77.3806 266.528 86.1417 256.39C94.9028 246.127 106.355 238.93 120.498 234.8C134.641 230.67 149.722 228.605 165.743 228.605H212.114V223.16C212.114 205.263 207.545 192.809 198.409 185.8C189.397 178.792 176.694 175.287 160.298 175.287C147.532 175.287 135.016 177.039 122.751 180.544C110.485 184.048 99.033 188.929 88.3945 195.187V160.644C99.9091 156.388 111.549 152.884 123.314 150.13C135.079 147.377 147.094 146 159.359 146C171.875 146 184.016 147.752 195.781 151.257C207.671 154.636 217.934 160.268 226.57 168.153C235.206 175.913 240.963 186.364 243.841 199.505C245.844 208.767 246.845 222.722 246.845 241.371V284.363C246.845 296.128 247.471 309.144 248.723 323.412C250.099 337.68 253.166 350.321 257.922 361.335H223.19C221.063 356.454 219.373 351.26 218.121 345.753C216.87 340.121 215.869 334.677 215.118 329.42C207.733 342.061 197.47 351.448 184.329 357.581C171.312 363.713 157.545 366.78 143.026 366.78ZM151.474 337.868C165.743 337.868 177.32 334.364 186.206 327.355C195.217 320.346 201.788 311.209 205.918 299.945C210.049 288.556 212.114 276.353 212.114 263.336V255.639H168.371C158.608 255.639 149.034 256.765 139.647 259.018C130.385 261.146 122.688 265.276 116.555 271.409C110.548 277.542 107.544 286.491 107.544 298.255C107.544 311.522 111.611 321.472 119.747 328.106C127.882 334.614 138.458 337.868 151.474 337.868Z" fill="black"/>
</svg>
